<svg width="561" height="97" viewBox="0 0 561 97" fill="none" xmlns="http://www.w3.org/2000/svg">
<path d="M88.3636 34.5H68.7273C68.7879 31.8939 68.4545 29.5909 67.7273 27.5909C67 25.5606 65.9091 23.8333 64.4545 22.4091C63.0303 20.9848 61.2879 19.9091 59.2273 19.1818C57.1667 18.4242 54.8485 18.0455 52.2727 18.0455C47.303 18.0455 42.7424 19.2879 38.5909 21.7727C34.4394 24.2576 30.9394 27.8636 28.0909 32.5909C25.2424 37.2879 23.2727 42.9697 22.1818 49.6364C21.1212 56.0606 21.1818 61.4394 22.3636 65.7727C23.5455 70.1061 25.6364 73.3788 28.6364 75.5909C31.6667 77.7727 35.4394 78.8636 39.9545 78.8636C42.7424 78.8636 45.3939 78.5152 47.9091 77.8182C50.4242 77.0909 52.7121 76.0606 54.7727 74.7273C56.8636 73.3636 58.6818 71.7121 60.2273 69.7727C61.803 67.8333 63.0303 65.6364 63.9091 63.1818H83.6818C82.4394 67.4545 80.5 71.5758 77.8636 75.5455C75.2576 79.5152 72.0303 83.0606 68.1818 86.1818C64.3333 89.2727 59.9545 91.7273 55.0455 93.5455C50.1364 95.3636 44.7576 96.2727 38.9091 96.2727C30.4545 96.2727 23.197 94.3333 17.1364 90.4545C11.1061 86.5758 6.75758 80.9848 4.09091 73.6818C1.42424 66.3788 0.924243 57.5758 2.59091 47.2727C4.25758 37.303 7.51515 28.8485 12.3636 21.9091C17.2424 14.9394 23.1667 9.65151 30.1364 6.04545C37.1364 2.43939 44.6212 0.63636 52.5909 0.63636C58.1364 0.63636 63.1515 1.39394 67.6364 2.90909C72.1212 4.42424 75.9394 6.63636 79.0909 9.54545C82.2727 12.4242 84.6667 15.9545 86.2727 20.1364C87.8788 24.3182 88.5758 29.1061 88.3636 34.5ZM106.818 95H85.7273L133.318 1.90909H158.682L175.318 95H154.227L142.909 23.1818H142.182L106.818 95ZM111.636 58.4091H161.455L158.818 73.7727H109L111.636 58.4091ZM245.807 28.9545C245.958 25.1667 244.852 22.2424 242.489 20.1818C240.155 18.1212 236.625 17.0909 231.898 17.0909C228.686 17.0909 225.898 17.5455 223.534 18.4545C221.17 19.3333 219.277 20.5606 217.852 22.1364C216.458 23.6818 215.595 25.4697 215.261 27.5C214.928 29.1667 215.034 30.6212 215.58 31.8636C216.155 33.1061 217.049 34.1818 218.261 35.0909C219.504 35.9697 220.973 36.7424 222.67 37.4091C224.367 38.0455 226.17 38.5909 228.08 39.0455L236.08 41.0455C239.989 41.9545 243.504 43.1667 246.625 44.6818C249.777 46.197 252.413 48.0606 254.534 50.2727C256.686 52.4848 258.201 55.0909 259.08 58.0909C259.958 61.0909 260.08 64.5303 259.443 68.4091C258.473 74.1061 256.216 79.0455 252.67 83.2273C249.125 87.3788 244.473 90.6061 238.716 92.9091C232.958 95.1818 226.292 96.3182 218.716 96.3182C211.201 96.3182 204.852 95.1667 199.67 92.8636C194.489 90.5606 190.716 87.1515 188.352 82.6364C186.019 78.0909 185.322 72.4697 186.261 65.7727H205.307C204.973 68.8939 205.428 71.5 206.67 73.5909C207.943 75.6515 209.837 77.2121 212.352 78.2727C214.867 79.303 217.822 79.8182 221.216 79.8182C224.58 79.8182 227.564 79.3333 230.17 78.3636C232.807 77.3939 234.943 76.0455 236.58 74.3182C238.216 72.5909 239.216 70.6061 239.58 68.3636C239.943 66.2727 239.625 64.5152 238.625 63.0909C237.625 61.6667 236.019 60.4545 233.807 59.4545C231.625 58.4242 228.913 57.5151 225.67 56.7273L215.943 54.1818C208.428 52.2727 202.746 49.2879 198.898 45.2273C195.049 41.1667 193.67 35.697 194.761 28.8182C195.731 23.1818 198.08 18.2576 201.807 14.0455C205.564 9.80303 210.292 6.51515 215.989 4.18182C221.716 1.81818 227.973 0.63636 234.761 0.63636C241.67 0.63636 247.504 1.83333 252.261 4.22727C257.019 6.59091 260.489 9.89394 262.67 14.1364C264.852 18.3788 265.519 23.3182 264.67 28.9545H245.807ZM268.273 95L283.727 1.90909H303.409L297.045 40.3182H337L343.364 1.90909H363L347.545 95H327.909L334.273 56.5455H294.318L287.955 95H268.273ZM398.909 1.90909L383.455 95H363.773L379.227 1.90909H398.909ZM399.648 95L415.102 1.90909H477.83L475.102 18.1364H432.057L428.42 40.3182H468.239L465.511 56.5455H425.693L422.057 78.7727H465.284L462.557 95H399.648ZM478.023 95L493.477 1.90909H530.205C537.235 1.90909 543.023 3.15151 547.568 5.63636C552.144 8.12121 555.356 11.6515 557.205 16.2273C559.083 20.7727 559.523 26.1364 558.523 32.3182C557.492 38.5 555.265 43.803 551.841 48.2273C548.447 52.6515 544.023 56.0606 538.568 58.4545C533.144 60.8182 526.856 62 519.705 62H495.114L497.841 46.1818H519.205C522.962 46.1818 526.174 45.6667 528.841 44.6364C531.508 43.6061 533.614 42.0606 535.159 40C536.735 37.9394 537.765 35.3788 538.25 32.3182C538.765 29.197 538.583 26.5909 537.705 24.5C536.826 22.3788 535.235 20.7727 532.932 19.6818C530.629 18.5606 527.598 18 523.841 18H510.568L497.705 95H478.023ZM535.295 52.6364L551.432 95H529.705L514.068 52.6364H535.295Z" fill="white"/>
</svg>
